# xmcd CD database file
#
# Track frame offsets:
#	150
#	12439
#	25434
#	40386
#	54136
#	65798
#	79808
#	94581
#	108589
#	120971
#	134071
#	148027
#	161121
#	174839
#	189139
#	204138
#	228093
#	241722
#	263352
#	279216
#
# Disc length: 3900 seconds
#
# Revision: 1
# Processed by: cddbd v1.5.2PL0 Copyright (c) Steve Scherf et al.
# Submitted via: CDex 1.51
#
DISCID=fe0f3a14
DTITLE=Louis Armstrong - Jazz Masters
DYEAR=1900
DGENRE=Jazz
TTITLE0=When The Saints Go Marching In
TTITLE1=Blueberry Hill
TTITLE2=St. James Infirmary
TTITLE3=Red Sails In The Sunset
TTITLE4=Alexanders Rag Time Band
TTITLE5=Cuban Pete
TTITLE6=Back O' Town Blues
TTITLE7=Dream A Little Dream
TTITLE8=I Ain't Got Nobody
TTITLE9=Mahogany Hall Stomp
TTITLE10=That Lucky Old Sun
TTITLE11=I've Got A Pocketful Of Dreams
TTITLE12=My Sweet Hunk O'Trash
TTITLE13=Big Butter And Egg Man
TTITLE14=A Song Was Born
TTITLE15=Stars Fell on Alabama
TTITLE16=I Want a Little Girl
TTITLE17=That's my Desire
TTITLE18='C' Jam Blues
TTITLE19=You Rascal You
EXTD=
EXTT0=
EXTT1=
EXTT2=
EXTT3=
EXTT4=
EXTT5=
EXTT6=
EXTT7=
EXTT8=
EXTT9=
EXTT10=
EXTT11=
EXTT12=
EXTT13=
EXTT14=
EXTT15=
EXTT16=
EXTT17=
EXTT18=
EXTT19=
PLAYORDER=
